<svg width="58" height="58" viewBox="0 0 58 58" fill="none" xmlns="http://www.w3.org/2000/svg">
<path d="M48.3333 14.5001H9.66667V9.66675H48.3333V14.5001ZM45.9167 29.0001C41.3008 29.0001 37.1442 30.8367 34.0992 33.8334H33.8333V34.0992C30.8367 37.1442 29 41.3009 29 45.9167C29 46.7384 29.0725 47.5359 29.1933 48.3334H9.66667V33.8334H7.25V29.0001L9.66667 16.9167H48.3333L50.75 29.0001V29.7251C49.2275 29.2659 47.6083 29.0001 45.9167 29.0001ZM29 33.8334H14.5V43.5001H29V33.8334ZM45.82 29.0001L44.37 21.7501H13.63L12.18 29.0001H45.82ZM57.5167 49.3001C57.7583 49.3001 57.7583 49.5417 57.5167 49.7834L55.1 53.8917C54.8583 54.1334 54.6167 54.1334 54.375 54.1334L51.475 53.1667C50.75 53.6501 50.2667 53.8917 49.5417 54.3751L49.0583 57.5167C49.0583 57.7584 48.8167 58.0001 48.575 58.0001H43.7417C43.5 58.0001 43.2583 57.7584 43.0167 57.5167L42.5333 54.3751C41.8083 54.1334 41.0833 53.6501 40.6 53.1667L37.7 54.3751C37.4583 54.3751 37.2167 54.3751 36.975 54.1334L34.5583 50.0251C34.3167 49.7834 34.5583 49.5417 34.8 49.3001L37.4583 47.3667V44.9501L34.8 43.0167C34.5583 42.7751 34.5583 42.5334 34.5583 42.2917L36.975 38.1834C37.2167 37.9417 37.4583 37.9417 37.7 37.9417L40.6 39.1501C41.325 38.6667 41.8083 38.4251 42.5333 37.9417L43.0167 34.8001C43.0167 34.5584 43.2583 34.3167 43.7417 34.3167H48.575C48.8167 34.3167 49.0583 34.5584 49.0583 34.8001L49.5417 37.9417C50.2667 38.1834 50.9917 38.6667 51.7167 39.1501L54.6167 37.9417C54.8583 37.9417 55.3417 37.9417 55.3417 38.1834L57.7583 42.2917C58 42.5334 57.7583 42.7751 57.5167 43.0167L54.8583 44.9501V47.3667L57.5167 49.3001ZM49.5417 45.9167C49.5417 43.9834 47.85 42.2917 45.9167 42.2917C43.9833 42.2917 42.2917 43.9834 42.2917 45.9167C42.2917 47.8501 43.9833 49.5417 45.9167 49.5417C47.85 49.5417 49.5417 47.8501 49.5417 45.9167Z" fill="#0082F4"/>
</svg>
