<svg width="58" height="46" viewBox="0 0 58 46" fill="none" xmlns="http://www.w3.org/2000/svg">
<path d="M56.0625 31.625H54.625V21.9129C54.625 20.7719 54.1668 19.6758 53.3582 18.8672L44.3828 9.8918C43.5742 9.0832 42.4781 8.625 41.3371 8.625H37.375V4.3125C37.375 1.93164 35.4434 0 33.0625 0H10.0625C7.68164 0 5.75 1.93164 5.75 4.3125V8.625H0.71875C0.323437 8.625 0 8.94844 0 9.34375V10.7812C0 11.1766 0.323437 11.5 0.71875 11.5H25.1562C25.5516 11.5 25.875 11.8234 25.875 12.2188V13.6562C25.875 14.0516 25.5516 14.375 25.1562 14.375H3.59375C3.19844 14.375 2.875 14.6984 2.875 15.0938V16.5312C2.875 16.9266 3.19844 17.25 3.59375 17.25H22.2812C22.6766 17.25 23 17.5734 23 17.9688V19.4062C23 19.8016 22.6766 20.125 22.2812 20.125H0.71875C0.323437 20.125 0 20.4484 0 20.8438V22.2812C0 22.6766 0.323437 23 0.71875 23H19.4062C19.8016 23 20.125 23.3234 20.125 23.7188V25.1562C20.125 25.5516 19.8016 25.875 19.4062 25.875H5.75V37.375C5.75 42.1367 9.61328 46 14.375 46C19.1367 46 23 42.1367 23 37.375H34.5C34.5 42.1367 38.3633 46 43.125 46C47.8867 46 51.75 42.1367 51.75 37.375H56.0625C56.8531 37.375 57.5 36.7281 57.5 35.9375V33.0625C57.5 32.2719 56.8531 31.625 56.0625 31.625ZM14.375 41.6875C11.9941 41.6875 10.0625 39.7559 10.0625 37.375C10.0625 34.9941 11.9941 33.0625 14.375 33.0625C16.7559 33.0625 18.6875 34.9941 18.6875 37.375C18.6875 39.7559 16.7559 41.6875 14.375 41.6875ZM43.125 41.6875C40.7441 41.6875 38.8125 39.7559 38.8125 37.375C38.8125 34.9941 40.7441 33.0625 43.125 33.0625C45.5059 33.0625 47.4375 34.9941 47.4375 37.375C47.4375 39.7559 45.5059 41.6875 43.125 41.6875ZM50.3125 23H37.375V12.9375H41.3371L50.3125 21.9129V23Z" fill="#FF6547"/>
</svg>
