<svg width="58" height="58" viewBox="0 0 58 58" fill="none" xmlns="http://www.w3.org/2000/svg">
<path d="M48.333 4.83325H19.333C18.0511 4.83325 16.8218 5.34248 15.9153 6.2489C15.0089 7.15533 14.4997 8.38471 14.4997 9.66659V38.6666C14.4997 39.9485 15.0089 41.1778 15.9153 42.0843C16.8218 42.9907 18.0511 43.4999 19.333 43.4999H48.333C49.6149 43.4999 50.8443 42.9907 51.7507 42.0843C52.6571 41.1778 53.1663 39.9485 53.1663 38.6666V9.66659C53.1663 8.38471 52.6571 7.15533 51.7507 6.2489C50.8443 5.34248 49.6149 4.83325 48.333 4.83325ZM48.333 38.6666H19.333V9.66659H48.333V38.6666ZM38.6663 48.3333V53.1666H9.66634C8.38446 53.1666 7.15508 52.6574 6.24866 51.7509C5.34223 50.8445 4.83301 49.6151 4.83301 48.3333V16.9166H9.66634V48.3333H38.6663ZM44.7805 19.4783L42.2188 16.9166L30.4255 28.7099L25.3022 23.5866L22.7405 26.1483L30.4255 33.8333L44.7805 19.4783Z" fill="#07FF2C"/>
</svg>
