<svg width="39" height="39" viewBox="0 0 39 39" fill="none" xmlns="http://www.w3.org/2000/svg">
<path d="M16.25 33.3125C17.5962 33.3125 18.6875 32.2212 18.6875 30.875C18.6875 29.5288 17.5962 28.4375 16.25 28.4375C14.9038 28.4375 13.8125 29.5288 13.8125 30.875C13.8125 32.2212 14.9038 33.3125 16.25 33.3125Z" stroke="white"/>
<path d="M27.625 33.3125C28.9712 33.3125 30.0625 32.2212 30.0625 30.875C30.0625 29.5288 28.9712 28.4375 27.625 28.4375C26.2788 28.4375 25.1875 29.5288 25.1875 30.875C25.1875 32.2212 26.2788 33.3125 27.625 33.3125Z" stroke="white"/>
<path d="M5.6875 6.5H8.9375L14.6315 24.375H27.625" stroke="white" stroke-linecap="round" stroke-linejoin="round"/>
<path d="M13.3638 20.3125L10.2373 10.5625H30.5612C30.69 10.5623 30.817 10.5928 30.9317 10.6514C31.0464 10.71 31.1456 10.795 31.221 10.8994C31.2964 11.0039 31.3458 11.1247 31.3653 11.2521C31.3848 11.3794 31.3738 11.5095 31.3331 11.6318L28.6242 19.7568C28.5703 19.9185 28.467 20.0592 28.3287 20.1589C28.1905 20.2586 28.0244 20.3124 27.8539 20.3125H13.3638Z" stroke="white" stroke-linecap="round" stroke-linejoin="round"/>
</svg>
