<svg width="35" height="35" viewBox="0 0 35 35" fill="none" xmlns="http://www.w3.org/2000/svg">
<path d="M23.3332 14.5833C23.3332 17.8063 20.7228 20.4167 17.4998 20.4167C14.2769 20.4167 11.6665 17.8063 11.6665 14.5833C11.6665 11.3604 14.2769 8.75 17.4998 8.75C20.7228 8.75 23.3332 11.3604 23.3332 14.5833Z" fill="white"/>
<path fill-rule="evenodd" clip-rule="evenodd" d="M17.5 35C27.1688 35 35 27.1688 35 17.5C35 7.83125 27.1688 0 17.5 0C7.83125 0 0 7.83125 0 17.5C0 27.1688 7.83125 35 17.5 35ZM26.6438 30.6833C30.8146 27.7813 33.5417 22.9688 33.5417 17.5C33.5417 8.63333 26.3667 1.45833 17.5 1.45833C8.63333 1.45833 1.45833 8.63333 1.45833 17.5C1.45833 22.9688 4.18542 27.7813 8.35625 30.6833C9.38438 28.7583 12.7021 23.3333 17.5 23.3333C22.2979 23.3333 25.6083 28.7583 26.6438 30.6833Z" fill="white"/>
</svg>
